<?xml version="1.0" encoding="utf-8"?>
<!-- Generator: Adobe Illustrator 23.0.2, SVG Export Plug-In . SVG Version: 6.00 Build 0)  -->
<svg version="1.1" id="Layer_1" xmlns="http://www.w3.org/2000/svg" xmlns:xlink="http://www.w3.org/1999/xlink" x="0px" y="0px"
	 viewBox="0 0 673.2 157.5" style="enable-background:new 0 0 673.2 157.5;" xml:space="preserve">
<style type="text/css">
	.st0{fill:#414042;}
	.st1{fill:#F58220;}
	.st2{fill:#0084BD;}
</style>
<title>hesmantech</title>
<path class="st0" d="M203.3,105.5h-11.4V75.9h-32.1v29.6h-11.3V37.2h11.3v28.7h32.1V37.2h11.4V105.5z"/>
<path class="st0" d="M255.3,84.1h-33.2c0.1,4.5,1.5,8,4.2,10.4c2.7,2.4,6.3,3.7,10.9,3.7c5.2,0,10.2-1.6,14.3-4.7v8.9
	c-4.5,2.8-10.3,4.2-17.6,4.2c-7.2,0-12.8-2.2-16.9-6.6c-4.1-4.4-6.1-10.7-6.1-18.7c0-7.6,2.2-13.8,6.7-18.5
	c4.3-4.7,10.4-7.3,16.7-7.2c6.7,0,11.8,2.1,15.5,6.4s5.5,10.2,5.5,17.9L255.3,84.1z M244.6,76.3c0-4-0.9-7-2.8-9.3
	c-1.9-2.2-4.7-3.4-7.6-3.3c-3.1,0-6,1.2-8.1,3.5c-2.3,2.5-3.7,5.7-4.1,9.1H244.6z"/>
<path class="st0" d="M257.9,104V93.7c3.9,3.1,8.7,4.7,13.7,4.7c6.7,0,10-2,10-5.9c0-1-0.3-2-0.9-2.8c-0.6-0.8-1.4-1.5-2.3-2.1
	c-1.1-0.7-2.2-1.2-3.4-1.6l-4.4-1.6c-1.9-0.7-3.7-1.6-5.4-2.5c-1.5-0.8-2.8-1.8-4-3c-1-1.1-1.9-2.4-2.4-3.8c-0.6-1.6-0.8-3.3-0.8-5
	c0-2.2,0.5-4.3,1.7-6.2c1.1-1.8,2.7-3.4,4.5-4.5c2-1.3,4.1-2.2,6.4-2.8c2.4-0.6,4.9-0.9,7.4-0.9c4.1-0.1,8.2,0.6,12.1,2v9.7
	c-3.5-2.4-7.6-3.6-11.8-3.5c-1.3,0-2.5,0.1-3.8,0.4c-1,0.2-2,0.6-2.9,1.2c-0.7,0.5-1.4,1.1-1.9,1.8c-0.4,0.7-0.7,1.5-0.7,2.3
	c0,0.9,0.2,1.9,0.7,2.7c0.5,0.8,1.2,1.4,2,1.9c1,0.6,2,1.1,3.1,1.5c1.2,0.5,2.6,1,4.2,1.5c1.9,0.8,3.8,1.7,5.6,2.6
	c1.5,0.8,3,1.8,4.3,3c1.2,1.1,2.1,2.4,2.7,3.9c0.7,1.7,1,3.5,0.9,5.3c0.1,2.3-0.5,4.5-1.7,6.5c-1.2,1.9-2.7,3.4-4.6,4.6
	c-2,1.3-4.3,2.2-6.6,2.7c-2.6,0.6-5.2,0.9-7.9,0.9C267,106.7,262.3,105.9,257.9,104z"/>
<path class="st0" d="M371,105.5h-11.1V78.9c0-5.1-0.7-8.8-2.2-11.1c-1.5-2.3-3.9-3.4-7.3-3.4c-2.9,0-5.3,1.4-7.4,4.3
	c-2.1,3.1-3.1,6.7-3,10.4v26.4H329V78c0-9.1-3.2-13.6-9.6-13.6c-3,0-5.8,1.6-7.4,4.1c-1.9,2.7-2.9,6.3-2.9,10.6v26.4h-11V56.7h11
	v7.7h0.2c3.5-5.9,8.6-8.9,15.4-8.9c3.2-0.1,6.3,0.9,8.8,2.8c2.5,1.8,4.3,4.4,5.2,7.3c3.6-6.7,9-10.1,16.2-10.1
	c10.7,0,16.1,6.6,16.1,19.9V105.5z"/>
<path class="st0" d="M417,105.5h-10.7v-7.6h-0.2c-3.3,5.8-8.3,8.8-14.8,8.8c-4.8,0-8.6-1.3-11.3-3.9c-2.7-2.7-4.2-6.5-4-10.3
	c0-9.2,5.3-14.6,15.9-16.1l14.5-2c0-7-3.3-10.4-9.9-10.4c-5.8,0-11.4,2.1-15.7,6v-9.7c5.4-3.1,11.6-4.7,17.8-4.6
	c12.3,0,18.4,6.1,18.4,18.2V105.5z M406.3,81.5L396.1,83c-2.5,0.2-5,1-7.2,2.3c-1.6,1.1-2.4,3.1-2.4,5.9c-0.1,1.9,0.8,3.8,2.2,5.1
	c1.7,1.4,3.8,2.1,5.9,2c3.2,0.1,6.2-1.3,8.3-3.6c2.2-2.4,3.4-5.6,3.3-8.9L406.3,81.5z"/>
<path class="st0" d="M469,105.5h-11V78c0-9.1-3.2-13.7-9.7-13.7c-3.2-0.1-6.3,1.3-8.3,3.8c-2.2,2.7-3.4,6.1-3.3,9.6v27.8h-11.1V56.7
	h11.1v8.1h0.2c3.6-6.1,8.9-9.2,15.8-9.2c5.3,0,9.3,1.7,12.1,5.2c2.8,3.4,4.2,8.4,4.2,14.9V105.5z"/>
<path class="st0" d="M503.3,105c-2.7,1.2-5.6,1.7-8.5,1.6c-9.5,0-14.2-4.5-14.2-13.6V65.4h-8.1v-8.7h8.1V45.5l11-3.2v14.4h11.7v8.7
	h-11.7v24.4c0,2.9,0.5,5,1.6,6.2c1,1.2,2.8,1.8,5.2,1.8c1.8,0,3.5-0.5,4.9-1.6V105z"/>
<path class="st0" d="M548.7,84.1h-33.2c0.1,4.5,1.5,8,4.2,10.4s6.3,3.7,10.9,3.7c5.2,0,10.2-1.6,14.3-4.7v8.9
	c-4.5,2.8-10.3,4.2-17.6,4.2c-7.2,0-12.8-2.2-16.9-6.6s-6.1-10.7-6.1-18.7c0-7.6,2.2-13.8,6.7-18.5c4.3-4.7,10.4-7.3,16.7-7.2
	c6.7,0,11.8,2.1,15.5,6.4c3.6,4.3,5.5,10.2,5.5,17.9V84.1z M538,76.3c0-4-0.9-7-2.8-9.3c-1.9-2.2-4.7-3.4-7.6-3.3
	c-3.1,0-6,1.2-8.1,3.5c-2.3,2.5-3.7,5.7-4.1,9.1H538z"/>
<path class="st0" d="M589.2,103.3c-4.2,2.3-9,3.5-13.9,3.4c-7.2,0-13.1-2.3-17.5-6.8c-4.4-4.5-6.7-10.4-6.7-17.6
	c0-8,2.4-14.5,7.2-19.4c4.8-4.9,11.2-7.3,19.2-7.3c4-0.1,8.1,0.7,11.8,2.3v10.3c-3.1-2.4-6.9-3.8-10.8-3.8
	c-4.3-0.1-8.5,1.6-11.5,4.7c-3,3.2-4.5,7.3-4.5,12.4c0,5.1,1.4,9.1,4.2,11.9c2.8,2.9,6.6,4.4,11.3,4.4c4.1-0.1,8.1-1.6,11.2-4.2
	L589.2,103.3z"/>
<path class="st0" d="M638.6,105.5h-11V78.8c0-9.6-3.2-14.5-9.7-14.5c-3.2,0-6.3,1.6-8.2,4.2c-2.3,3.1-3.5,6.9-3.3,10.7v26.2h-11.1
	V33.3h11.1v31.5h0.2c3.7-6.1,9-9.2,15.8-9.2c10.8,0,16.2,6.6,16.2,19.9V105.5z"/>
<path class="st1" d="M151.4,130.9v9.4h-3.2v-23.9h8.8c2.2-0.1,4.4,0.6,6.2,2c1.5,1.4,2.3,3.3,2.2,5.3c0.1,2-0.7,4-2.2,5.4
	c-1.8,1.4-4,2-6.2,1.9L151.4,130.9z M151.4,128.3h5.6c1.4,0.1,2.8-0.3,3.9-1.2c0.9-0.9,1.4-2.2,1.3-3.4c0.1-1.3-0.4-2.5-1.3-3.4
	c-1-0.9-2.3-1.4-3.7-1.3h-5.9L151.4,128.3z"/>
<path class="st1" d="M180,138.5c-1.3,1.5-3.2,2.2-5.2,2.1c-1.6,0.1-3.2-0.5-4.3-1.6c-1.1-1.4-1.6-3.1-1.5-4.9v-11.6h3V134
	c0,2.7,1.1,4.1,3.3,4.1c2.3,0,3.9-0.9,4.6-2.6v-13h3v17.8H180V138.5z"/>
<path class="st1" d="M196.1,125.2c-0.5-0.1-1-0.1-1.5-0.1c-1.8-0.1-3.4,0.9-4.1,2.6v12.6h-3v-17.8h3l0.1,2.1
	c0.9-1.5,2.5-2.4,4.2-2.4c0.5,0,0.9,0.1,1.4,0.2L196.1,125.2z"/>
<path class="st1" d="M209.3,135.5c0-0.8-0.3-1.5-0.9-1.9c-1-0.6-2.1-1-3.2-1.2c-1.3-0.2-2.5-0.6-3.7-1.2c-0.8-0.4-1.5-0.9-2-1.6
	c-0.4-0.7-0.7-1.5-0.6-2.3c0-1.5,0.7-2.8,1.9-3.7c1.3-1,3-1.6,4.7-1.5c1.8-0.1,3.5,0.5,4.9,1.6c1.2,1,1.9,2.4,1.9,4h-3.1
	c0-0.8-0.4-1.6-1.1-2.2c-0.8-0.6-1.7-0.9-2.7-0.9c-0.9-0.1-1.8,0.2-2.6,0.7c-0.6,0.4-0.9,1.1-0.9,1.9c0,0.7,0.3,1.3,0.9,1.7
	c1,0.5,2,0.9,3.1,1.1c1.3,0.3,2.5,0.7,3.7,1.2c0.8,0.4,1.5,1,2.1,1.7c0.5,0.7,0.7,1.6,0.7,2.4c0,1.5-0.7,2.9-1.9,3.8
	c-1.5,1-3.2,1.5-5,1.4c-1.3,0-2.6-0.2-3.8-0.8c-1-0.5-1.9-1.2-2.6-2.1c-0.6-0.9-0.9-1.9-0.9-2.9h3c0,1,0.5,1.8,1.2,2.4
	c0.9,0.6,1.9,0.9,3,0.9c1,0,1.9-0.2,2.8-0.7C208.8,137,209.3,136.3,209.3,135.5z"/>
<path class="st1" d="M227.3,138.5c-1.3,1.5-3.2,2.2-5.2,2.1c-1.6,0.1-3.2-0.5-4.3-1.6c-1.1-1.4-1.6-3.1-1.5-4.9v-11.6h3.1V134
	c0,2.7,1.1,4.1,3.3,4.1s3.9-0.9,4.6-2.6v-13h3v17.8h-2.9L227.3,138.5z"/>
<path class="st1" d="M234.9,117.7c0-0.5,0.1-0.9,0.4-1.3c0.8-0.7,1.9-0.7,2.7,0c0.3,0.3,0.5,0.8,0.5,1.3c-0.1,1-1,1.8-2.1,1.7
	c-0.4,0-0.8-0.2-1.1-0.5C235,118.6,234.9,118.2,234.9,117.7z M238.2,140.3h-3v-17.8h3V140.3z"/>
<path class="st1" d="M247.2,118.2v4.3h3.3v2.3h-3.3v11c0,0.6,0.1,1.1,0.4,1.6c0.4,0.4,1,0.6,1.5,0.5c0.5,0,1-0.1,1.4-0.2v2.4
	c-0.8,0.2-1.5,0.3-2.3,0.3c-1.2,0.1-2.3-0.4-3.1-1.2c-0.7-1-1.1-2.3-1-3.5v-11h-3.2v-2.3h3.2v-4.3L247.2,118.2z"/>
<path class="st1" d="M261.6,131.2c0-1.6,0.3-3.2,1-4.7c0.6-1.3,1.6-2.5,2.9-3.2c1.3-0.8,2.7-1.2,4.2-1.1c2.2-0.1,4.4,0.8,5.9,2.5
	c1.6,1.9,2.4,4.3,2.3,6.7v0.2c0,1.6-0.3,3.2-1,4.7c-0.6,1.3-1.6,2.4-2.8,3.2c-1.3,0.8-2.8,1.2-4.3,1.1c-2.2,0.1-4.4-0.8-5.9-2.5
	c-1.6-1.9-2.4-4.2-2.3-6.7L261.6,131.2z M264.6,131.6c-0.1,1.7,0.4,3.4,1.4,4.8c1.6,2,4.5,2.4,6.5,0.8c0.3-0.2,0.6-0.5,0.8-0.8
	c1-1.5,1.5-3.3,1.4-5.1c0.1-1.7-0.4-3.4-1.4-4.7c-1.6-2-4.5-2.4-6.5-0.9c-0.3,0.2-0.6,0.5-0.9,0.9C265,128,264.5,129.8,264.6,131.6z
	"/>
<path class="st1" d="M283.1,140.3v-15.4h-2.8v-2.3h2.8v-1.8c-0.1-1.6,0.4-3.2,1.5-4.4c1.2-1.1,2.7-1.7,4.3-1.6
	c0.7,0,1.4,0.1,2.1,0.3l-0.2,2.5c-0.5-0.1-1.1-0.2-1.6-0.2c-0.8,0-1.7,0.3-2.3,0.9c-0.6,0.7-0.9,1.6-0.8,2.5v1.9h3.8v2.3h-3.8v15.4
	L283.1,140.3z"/>
<path class="st1" d="M320.4,129.1c0.1,2.1-0.3,4.1-1.1,6c-0.6,1.6-1.7,2.9-3.1,3.9l4.3,3.4l-2.2,2l-5-4c-0.8,0.2-1.7,0.3-2.5,0.3
	c-1.8,0-3.5-0.5-5-1.4c-1.5-1-2.7-2.4-3.4-4c-0.8-1.9-1.3-3.9-1.2-6v-1.7c0-2.1,0.4-4.2,1.2-6.1c2.2-4.7,7.8-6.8,12.5-4.6
	c0.3,0.2,0.7,0.3,1,0.5c1.5,1,2.7,2.4,3.4,4c0.8,1.9,1.2,4,1.2,6.1L320.4,129.1z M317.2,127.5c0.1-2.3-0.4-4.6-1.7-6.5
	c-1.1-1.5-2.9-2.4-4.8-2.3c-1.9-0.1-3.6,0.8-4.7,2.3c-1.3,1.9-1.9,4.1-1.8,6.3v1.8c-0.1,2.3,0.5,4.6,1.7,6.5c2,2.7,5.9,3.2,8.5,1.1
	c0.4-0.3,0.7-0.6,1-1c1.2-1.9,1.8-4.1,1.7-6.4L317.2,127.5z"/>
<path class="st1" d="M335.8,138.5c-1.3,1.5-3.2,2.2-5.2,2.1c-1.6,0.1-3.2-0.5-4.3-1.6c-1.1-1.4-1.6-3.1-1.5-4.9v-11.6h3V134
	c0,2.7,1.1,4.1,3.3,4.1c2.3,0,3.9-0.9,4.6-2.6v-13h3v17.8h-2.9L335.8,138.5z"/>
<path class="st1" d="M354.3,140.3c-0.2-0.6-0.4-1.2-0.4-1.9c-1.3,1.4-3.1,2.2-5.1,2.2c-1.6,0.1-3.1-0.5-4.3-1.5
	c-1.1-0.9-1.7-2.3-1.7-3.8c-0.1-1.7,0.7-3.3,2.1-4.3c1.8-1.1,3.9-1.7,6-1.5h3v-1.4c0-0.9-0.3-1.9-1-2.5c-0.8-0.7-1.8-1-2.8-0.9
	c-1,0-1.9,0.3-2.7,0.8c-0.7,0.4-1.1,1.2-1.1,2h-3.1c0-0.9,0.4-1.8,1-2.6c0.7-0.9,1.5-1.6,2.6-2c1.1-0.5,2.3-0.7,3.6-0.7
	c1.7-0.1,3.5,0.4,4.8,1.5c1.2,1.1,1.9,2.6,1.8,4.2v8.2c-0.1,1.3,0.2,2.7,0.6,3.9v0.3L354.3,140.3z M349.3,137.9c1,0,1.9-0.3,2.7-0.7
	c0.8-0.4,1.4-1.1,1.9-1.9v-3.6h-2.4c-3.7,0-5.6,1.1-5.6,3.3c0,0.9,0.3,1.7,1,2.2C347.5,137.7,348.4,138,349.3,137.9L349.3,137.9z"/>
<path class="st1" d="M365,140.3h-3V115h3V140.3z"/>
<path class="st1" d="M369.8,117.7c0-0.5,0.1-0.9,0.5-1.3c0.3-0.4,0.8-0.5,1.3-0.5c0.5,0,1,0.2,1.4,0.5c0.3,0.3,0.5,0.8,0.5,1.3
	c0,0.5-0.1,0.9-0.4,1.3c-0.4,0.3-0.9,0.5-1.4,0.5c-0.5,0-1-0.1-1.3-0.5C370,118.7,369.8,118.2,369.8,117.7z M373.1,140.3h-3v-17.8h3
	V140.3z"/>
<path class="st1" d="M382.1,118.2v4.3h3.3v2.3h-3.3v11c0,0.6,0.1,1.1,0.5,1.6c0.4,0.4,1,0.6,1.5,0.5c0.5,0,1-0.1,1.5-0.2v2.4
	c-0.8,0.2-1.5,0.3-2.3,0.3c-1.2,0.1-2.3-0.4-3.1-1.2c-0.7-1-1.1-2.3-1-3.5v-11h-3.2v-2.3h3.2v-4.3L382.1,118.2z"/>
<path class="st1" d="M394.8,135.8l4.2-13.3h3.3l-7.2,20.5c-1.1,3-2.9,4.4-5.3,4.4l-0.6-0.1l-1.1-0.2v-2.5l0.8,0.1
	c0.8,0,1.7-0.2,2.4-0.6c0.7-0.6,1.2-1.4,1.4-2.3l0.7-1.8l-6.4-17.6h3.3L394.8,135.8z"/>
<path class="st1" d="M424.3,140.3c-0.2-0.6-0.4-1.2-0.4-1.9c-1.3,1.4-3.1,2.2-5.1,2.2c-1.6,0.1-3.1-0.5-4.3-1.5
	c-1.1-0.9-1.7-2.3-1.7-3.8c-0.1-1.7,0.7-3.3,2.1-4.3c1.8-1.1,3.8-1.7,5.9-1.5h3v-1.4c0-0.9-0.3-1.9-1-2.5c-0.8-0.7-1.8-1-2.8-0.9
	c-1,0-1.9,0.3-2.7,0.8c-0.7,0.4-1.1,1.2-1.1,2h-3.1c0-0.9,0.3-1.8,0.9-2.6c0.7-0.9,1.6-1.6,2.6-2c1.1-0.5,2.3-0.7,3.6-0.7
	c1.7-0.1,3.5,0.4,4.8,1.5c1.2,1.1,1.8,2.6,1.8,4.2v8.2c0,1.3,0.2,2.7,0.6,3.9v0.3L424.3,140.3z M419.2,137.9c1,0,1.9-0.3,2.7-0.7
	c0.8-0.4,1.4-1.1,1.9-1.9v-3.6h-2.4c-3.7,0-5.6,1.1-5.6,3.3c0,0.9,0.3,1.7,1,2.2C417.4,137.7,418.3,138,419.2,137.9z"/>
<path class="st1" d="M434.5,122.5l0.1,2.2c1.3-1.7,3.2-2.6,5.3-2.6c3.8,0,5.7,2.1,5.7,6.4v11.8h-3v-11.8c0.1-1-0.2-2-0.9-2.8
	c-0.7-0.7-1.7-1-2.7-0.9c-0.9,0-1.8,0.3-2.6,0.8c-0.7,0.5-1.3,1.2-1.7,2.1v12.7h-3v-17.8H434.5z"/>
<path class="st1" d="M449.4,131.2c-0.1-2.4,0.6-4.7,1.9-6.6c2.3-2.8,6.4-3.3,9.3-1c0.3,0.2,0.5,0.4,0.7,0.7V115h3v25.3h-2.8
	l-0.1-1.9c-1.2,1.5-3.1,2.3-5.1,2.2c-2,0-3.8-0.9-5-2.5c-1.4-1.9-2.1-4.3-2-6.6L449.4,131.2z M452.4,131.6c-0.1,1.7,0.3,3.3,1.3,4.7
	c0.8,1.1,2.1,1.8,3.5,1.7c1.8,0.1,3.5-1,4.2-2.6v-8.2c-0.8-1.6-2.4-2.6-4.2-2.5c-1.4-0.1-2.7,0.6-3.5,1.7
	C452.8,128,452.3,129.8,452.4,131.6L452.4,131.6z"/>
<path class="st1" d="M491.5,129.2h-10.4v8.5h12.1v2.6H478v-23.9h15v2.6h-11.9v7.7h10.4V129.2z"/>
<path class="st1" d="M502.6,129l3.9-6.5h3.6l-5.8,8.8l6,9h-3.5l-4.1-6.7l-4.1,6.7H495l6-9l-5.8-8.8h3.5L502.6,129z"/>
<path class="st1" d="M520.1,138.1c1,0,2-0.3,2.8-1c0.8-0.6,1.3-1.5,1.3-2.5h2.9c-0.1,1-0.4,2.1-1,2.9c-0.7,0.9-1.6,1.7-2.6,2.2
	c-1.1,0.5-2.2,0.8-3.4,0.8c-2.2,0.1-4.3-0.8-5.8-2.4c-1.5-1.9-2.3-4.2-2.2-6.6V131c0-1.6,0.3-3.2,1-4.6c0.6-1.3,1.5-2.4,2.7-3.1
	c1.3-0.8,2.7-1.2,4.2-1.1c1.8-0.1,3.6,0.6,5,1.8c1.3,1.2,2.1,2.9,2.1,4.6h-2.9c-0.1-1.1-0.5-2.1-1.3-2.8c-0.8-0.7-1.8-1.1-2.9-1.1
	c-1.4-0.1-2.7,0.6-3.6,1.7c-0.9,1.4-1.4,3.1-1.3,4.8v0.6c-0.1,1.7,0.3,3.3,1.3,4.7C517.4,137.5,518.7,138.2,520.1,138.1z"/>
<path class="st1" d="M538,140.6c-2.2,0.1-4.4-0.8-5.9-2.4c-1.6-1.7-2.4-4-2.3-6.4v-0.6c0-1.6,0.3-3.3,1-4.7c0.6-1.3,1.6-2.5,2.8-3.3
	c1.2-0.8,2.5-1.2,3.9-1.2c2.1-0.1,4,0.7,5.4,2.3c1.4,1.9,2.1,4.2,2,6.6v1.3h-12.1c0,1.6,0.5,3.1,1.5,4.3c0.9,1.1,2.3,1.7,3.7,1.6
	c1,0,1.9-0.2,2.7-0.7c0.8-0.4,1.5-1,2-1.7l1.9,1.4C543.3,139.5,540.7,140.8,538,140.6z M537.6,124.6c-1.2,0-2.3,0.5-3.1,1.3
	c-0.9,1.1-1.4,2.4-1.5,3.8h8.9v-0.2c0-1.3-0.4-2.6-1.3-3.6C539.9,125,538.8,124.6,537.6,124.6L537.6,124.6z"/>
<path class="st1" d="M551.8,140.3h-3V115h3V140.3z"/>
<path class="st1" d="M560,140.3h-3V115h3V140.3z"/>
<path class="st1" d="M572.2,140.6c-2.2,0.1-4.4-0.8-5.9-2.4c-1.6-1.7-2.4-4-2.3-6.4v-0.6c0-1.6,0.3-3.2,1-4.7
	c0.6-1.3,1.6-2.5,2.8-3.3c1.2-0.8,2.5-1.2,3.9-1.2c2.1-0.1,4,0.7,5.4,2.3c1.3,1.5,1.9,3.7,1.9,6.5v1.3h-12c0,1.6,0.5,3.1,1.5,4.3
	c0.9,1.1,2.3,1.7,3.7,1.6c1,0,1.9-0.2,2.7-0.7c0.8-0.4,1.5-1,2-1.7l1.9,1.4C577.5,139.4,574.9,140.7,572.2,140.6z M571.8,124.6
	c-1.2,0-2.3,0.5-3.1,1.3c-0.9,1.1-1.4,2.4-1.5,3.8h8.9v-0.2c0-1.3-0.4-2.6-1.3-3.6C574.1,125,573,124.6,571.8,124.6L571.8,124.6z"/>
<path class="st1" d="M585.5,122.5l0.1,2.2c1.3-1.7,3.2-2.6,5.3-2.6c3.8,0,5.7,2.1,5.7,6.4v11.8h-3v-11.8c0.1-1-0.2-2-0.9-2.8
	c-0.7-0.7-1.7-1-2.7-0.9c-0.9,0-1.8,0.3-2.6,0.8c-0.7,0.5-1.3,1.2-1.7,2.1v12.7h-3v-17.8H585.5z"/>
<path class="st1" d="M608.4,138.1c1,0,2-0.3,2.8-1c0.8-0.6,1.3-1.5,1.3-2.5h2.9c-0.1,1.1-0.4,2.1-1.1,2.9c-0.7,0.9-1.6,1.7-2.6,2.2
	c-1.1,0.5-2.2,0.8-3.4,0.8c-2.2,0.1-4.3-0.8-5.8-2.4c-1.5-1.9-2.3-4.2-2.2-6.6V131c0-1.6,0.3-3.2,1-4.6c0.6-1.3,1.5-2.4,2.7-3.1
	c1.3-0.8,2.7-1.2,4.2-1.1c1.8-0.1,3.6,0.6,5,1.8c1.3,1.2,2.1,2.9,2.1,4.6h-2.9c-0.1-1.1-0.5-2.1-1.3-2.8c-0.8-0.7-1.8-1.1-2.9-1.1
	c-1.4-0.1-2.7,0.6-3.6,1.7c-0.9,1.4-1.4,3.1-1.3,4.8v0.6c-0.1,1.7,0.3,3.3,1.3,4.7C605.6,137.5,607,138.2,608.4,138.1z"/>
<path class="st1" d="M626.3,140.6c-2.2,0.1-4.4-0.8-5.9-2.4c-1.6-1.7-2.4-4-2.3-6.4v-0.6c0-1.6,0.3-3.3,1-4.7
	c0.6-1.3,1.6-2.5,2.8-3.3c1.2-0.8,2.5-1.2,3.9-1.2c2.1-0.1,4,0.7,5.4,2.3c1.4,1.9,2.1,4.2,1.9,6.5v1.3h-12c0,1.6,0.5,3.1,1.5,4.3
	c0.9,1.1,2.3,1.7,3.7,1.6c1,0,1.9-0.2,2.7-0.7c0.8-0.4,1.5-1,2-1.7l1.9,1.4C631.5,139.4,629,140.7,626.3,140.6z M625.9,124.6
	c-1.2,0-2.3,0.5-3.1,1.3c-0.9,1.1-1.4,2.4-1.5,3.8h8.9v-0.2c0-1.3-0.4-2.6-1.3-3.6C628.1,125,627,124.6,625.9,124.6L625.9,124.6z"/>
<polygon class="st2" points="113.3,36.4 113.3,97.6 73.3,120.6 73.2,120.6 73.1,120.6 73.1,120.6 56.6,111.5 56.6,90.8 73.1,81.4 
	73.3,81.4 89.7,72.2 89.7,97.8 101.5,91.5 101.5,29.5 73.4,13.3 73.1,13.1 73.1,13.1 20.3,43.8 20.3,104.6 33,111.5 33,50.5 
	73.1,27.4 73.3,27.4 73.4,27.4 89.8,36.5 89.8,58.3 73.3,67.5 73.1,67.6 57,76.6 57,50.3 44.5,57.4 44.5,118.4 73.1,135 73.1,135 
	73.1,135 73.3,135.1 125.8,104.3 125.8,43.7 "/>
</svg>
